<svg xmlns="http://www.w3.org/2000/svg" xml:space="preserve" width="32" height="32" viewBox="0 0 32 32"><g style="opacity:1;fill:#e0e0e0;fill-opacity:1"><path d="M6.857 5.574h3.477c.594 0 1.16.244 1.568.676l1.815 1.924-1.967 2.346a1.74 1.74 0 0 1-1.334.62H4.414V8.019a2.43 2.43 0 0 1 2.443-2.444m0-2a4.46 4.46 0 0 0-4.443 4.444v12.759c0 2.815 2.303 5.118 5.117 5.118h5.155a10 10 0 0 1-.797-2H7.53a3.1 3.1 0 0 1-3.117-3.118v-7.636h6.002c1.105 0 2.157-.49 2.867-1.336l2.238-2.67h8.034c.545 0 1.308.399 1.896 1.002.588.602.921 1.427.924 1.597v.452c.721.38 1.393.844 2.002 1.378 0-.924.002-1.67-.002-1.865-.02-1.127-.649-2.095-1.492-2.959s-1.979-1.605-3.328-1.605h-8.069l-2.129-2.258a4.16 4.16 0 0 0-3.023-1.303Z" style="baseline-shift:baseline;display:inline;overflow:visible;opacity:1;vector-effect:none;fill:#fff;fill-opacity:1;stroke-linecap:round;stroke-miterlimit:1000;paint-order:stroke markers fill;stop-color:#000;stop-opacity:1" transform="translate(-.12 -.406)"/><path d="M21.747 13.08a8.08 8.08 0 0 0-8.078 8.079 8.08 8.08 0 0 0 8.078 8.078 8.08 8.08 0 0 0 8.078-8.078 8.08 8.08 0 0 0-8.078-8.078m-.979 2.503 2 .007-.004 1-.013 3.573 3.572.013 1 .004-.008 2-1-.004-3.572-.013-.014 3.572-.004 1-2-.008.004-1 .014-3.572-3.572-.014-1-.004.008-2 1 .004 3.572.014.013-3.572z" style="fill:#fff;fill-opacity:1;stroke-width:2.50794;stroke-linecap:round;stroke-miterlimit:1000;paint-order:stroke markers fill" transform="translate(-.12 -.406)"/></g></svg>