<svg xmlns="http://www.w3.org/2000/svg" xml:space="preserve" width="32" height="32" viewBox="0 0 32 32"><g style="display:inline;opacity:1"><path d="m15.135 4.842 4.299 5.027h-3.838a.447.447 0 0 1-.461-.46zM7.28 2.559a3.616 3.616 0 0 0-3.6 3.601v18.05a3.953 3.953 0 0 0 3.937 3.937h3.7a10 10 0 0 1-1.194-2H7.617A1.92 1.92 0 0 1 5.68 24.21V6.16c0-.897.704-1.601 1.601-1.601h5.854v4.85a2.476 2.476 0 0 0 2.46 2.46h4.801v.184a10 10 0 0 1 2 .431v-1.101c0-.168-.17-1.34-.732-1.985l-5.143-6.011a2.37 2.37 0 0 0-1.798-.828Z" style="baseline-shift:baseline;display:inline;overflow:visible;opacity:1;vector-effect:none;fill:#fff;fill-opacity:1;stroke-linecap:round;stroke-miterlimit:1000;paint-order:stroke markers fill;stop-color:#000;stop-opacity:1"/><path d="M21.747 13.08a8.08 8.08 0 0 0-8.078 8.079 8.08 8.08 0 0 0 8.078 8.078 8.08 8.08 0 0 0 8.078-8.078 8.08 8.08 0 0 0-8.078-8.078m-.979 2.503 2 .007-.004 1-.013 3.573 3.572.013 1 .004-.008 2-1-.004-3.572-.013-.014 3.572-.004 1-2-.008.004-1 .014-3.572-3.572-.014-1-.004.008-2 1 .004 3.572.014.013-3.572z" style="display:inline;opacity:1;fill:#fff;fill-opacity:1;stroke-width:2.50794;stroke-linecap:round;stroke-miterlimit:1000;paint-order:stroke markers fill" transform="translate(-2.215 .764)"/></g></svg>