<svg xmlns="http://www.w3.org/2000/svg" xml:space="preserve" width="32" height="32" viewBox="0 0 32 32"><g style="display:inline"><g style="display:inline;opacity:1"><path d="M25.686 14.415a8.08 8.08 0 0 0-8.078 8.078 8.08 8.08 0 0 0 8.078 8.078 8.08 8.08 0 0 0 8.078-8.078 8.08 8.08 0 0 0-8.078-8.078m-.978 2.502 2 .008-.004 1-.014 3.572 3.572.014 1 .004-.007 2-1-.004-3.573-.014-.013 3.572-.004 1-2-.007.004-1 .013-3.573-3.572-.013-1-.004.008-2 1 .004 3.572.013.014-3.572z" style="display:inline;opacity:1;fill:#fff;fill-opacity:1;stroke-width:2.50794;stroke-linecap:round;stroke-miterlimit:1000;paint-order:stroke markers fill" transform="translate(-3.798 -.663)scale(1.0158)"/><path d="M10.791 4.16h14.875a3.624 3.624 0 0 1 3.653 3.652v.04H7.139v-.04a3.624 3.624 0 0 1 3.652-3.652m0-1.924a5.586 5.586 0 0 0-5.576 5.576V22.63a5.586 5.586 0 0 0 5.576 5.577h7.264a9.6 9.6 0 0 1-1.121-1.924h-6.143A3.624 3.624 0 0 1 7.14 22.63V9.775h22.18v3.898a9.6 9.6 0 0 1 1.924 1.073V7.812a5.586 5.586 0 0 0-5.577-5.576z" style="display:inline;opacity:1;fill:#fff;fill-opacity:1;stroke-width:2.50794;stroke-linecap:round;stroke-miterlimit:1000;paint-order:stroke markers fill" transform="translate(-3.798 -.663)scale(1.0158)"/></g></g></svg>