<svg xmlns="http://www.w3.org/2000/svg" xml:space="preserve" width="32" height="32" viewBox="0 0 32 32"><g style="display:inline"><path d="M13.407 17.563h6.108" style="fill:none;stroke:#fff;stroke-width:2;stroke-linecap:round;stroke-miterlimit:1000;stroke-dasharray:none;stroke-opacity:1;paint-order:stroke markers fill"/><path d="m28.393 11.867-2.01.004q.026.198.027.404v11.213a2.897 2.897 0 0 1-2.924 2.926H9.498a2.897 2.897 0 0 1-2.924-2.926V12.275q0-.19.024-.37l-1.578.001a1 1 0 0 1-.424-.094 5 5 0 0 0-.022.463v11.213a4.937 4.937 0 0 0 4.924 4.926h13.988a4.937 4.937 0 0 0 4.924-4.926V12.275q0-.205-.017-.408" style="baseline-shift:baseline;display:inline;overflow:visible;opacity:1;vector-effect:none;fill:#fff;fill-opacity:1;stroke-linecap:round;stroke-miterlimit:1000;paint-order:stroke markers fill;stop-color:#000;stop-opacity:1"/><rect width="25.512" height="6.155" x="3.736" y="5.475" ry="2.074" style="fill:none;stroke:#fff;stroke-width:2;stroke-linecap:round;stroke-miterlimit:1000;stroke-dasharray:none;stroke-opacity:1;paint-order:stroke markers fill"/></g></svg>