<svg xmlns="http://www.w3.org/2000/svg" width="16" height="15.928" viewBox="0 0 16 15.928"><g style="display:inline"><path d="M0 13.808c0 1.165.955 2.12 2.12 2.12h11.815c1.135 0 2.065-.93 2.065-2.065V2.268A2.276 2.276 0 0 0 13.732 0H2.17A2.18 2.18 0 0 0 0 2.17Zm1.094 0v-2.502h13.812v2.557a.965.965 0 0 1-.97.976H2.12a1.02 1.02 0 0 1-1.026-1.03m0-3.596V2.171c0-.602.475-1.077 1.076-1.077h11.562c.656 0 1.174.518 1.174 1.174v7.944z" style="baseline-shift:baseline;display:inline;overflow:visible;vector-effect:none;fill:#fff;fill-opacity:1;stroke-width:2.16205;stroke-linecap:round;stroke-linejoin:round;stroke-miterlimit:.5;paint-order:stroke markers fill;stop-color:#000"/></g></svg>