<svg xmlns="http://www.w3.org/2000/svg" xml:space="preserve" width="32" height="32" viewBox="0 0 32 32"><g style="display:inline"><g style="stroke:#e0e0e0;stroke-opacity:1"><path d="M20.483 24.374c-1.42.885-1.761 2.18-1.409 4.548l-5.95.05c.336-2.542-.261-3.794-1.844-4.697-1.472-.795-2.89-.554-4.773.924l-2.988-5.145c2.217-.903 3.158-1.857 3.196-3.53-.018-1.671-.277-2.837-3.278-3.984l2.875-5.209c1.915 1.437 3.338 1.647 4.792.82 1.317-.777 2.527-1.602 2.07-4.868l5.95.004c-.448 3.182.447 3.972 1.902 4.797 1.482.775 2.772.414 4.635-1.09l3.057 5.104c-2.205.933-3.102 2.058-3.117 3.73.024 1.822.83 2.951 3.218 3.888l-2.922 5.182c-1.778-1.544-3.5-1.653-5.414-.524" style="fill:none;fill-rule:nonzero;stroke:#fff;stroke-width:2;stroke-linecap:round;stroke-linejoin:round;stroke-miterlimit:0;stroke-opacity:1;paint-order:stroke markers fill"/><circle cx="16.128" cy="16.128" r="3.029" style="fill:none;stroke:#fff;stroke-width:1.94182;stroke-linecap:round;stroke-linejoin:round;stroke-miterlimit:0;stroke-opacity:1;paint-order:stroke markers fill"/></g></g></svg>