<svg xmlns="http://www.w3.org/2000/svg" xml:space="preserve" width="32" height="32" viewBox="0 0 32 32"><path d="M5.021 5.67h6.697a4.14 4.14 0 0 1 4.138 4.139v13.084a3.873 3.873 0 0 1-3.873 3.873h-6.86c-.776 0-1.406-.63-1.406-1.406V6.975c0-.72.584-1.304 1.304-1.304zm21.67 0h-6.698a4.14 4.14 0 0 0-4.137 4.139v13.084a3.873 3.873 0 0 0 3.873 3.873h6.859c.776 0 1.406-.63 1.406-1.406V6.975c0-.72-.584-1.304-1.304-1.304z" style="fill:none;stroke:#fff;stroke-width:1.98281;stroke-linecap:square;stroke-miterlimit:100;stroke-dasharray:none;stroke-opacity:1;paint-order:stroke markers fill" transform="matrix(1.01825 0 0 .99918 -.145 -.205)"/></svg>