<svg xmlns="http://www.w3.org/2000/svg" xml:space="preserve" width="29.826" height="29.365" viewBox="0 0 29.826 29.365"><g style="display:inline;fill:#e0e0e0;fill-opacity:1;stroke:none;stroke-opacity:1"><g style="display:inline;fill:#e0e0e0;fill-opacity:1;stroke:none;stroke-opacity:1"><path d="M16.485 5.633a13 13 0 0 0-1.953.048c-5.158.526-9.693 4.041-13.318 8.827a1 1 0 0 0-.002 1.205c2.528 3.351 5.254 5.752 8.068 7.205l1.504-1.512c-2.51-1.176-5.018-3.247-7.445-6.303 3.32-4.158 7.241-7.008 11.396-7.431q.79-.082 1.6-.043c1.962.092 4.01.724 6.127 2.035l1.463-1.473c-2.511-1.617-5.01-2.435-7.44-2.558m-.527 3.664c-3.205 0-5.826 2.62-5.826 5.826 0 1.881.902 3.562 2.297 4.629l1.422-1.43a3.81 3.81 0 0 1-1.72-3.2 3.81 3.81 0 0 1 3.827-3.825 3.81 3.81 0 0 1 3.188 1.7l1.42-1.429a5.82 5.82 0 0 0-4.608-2.271m9.617.072-1.449 1.457c1.427 1.108 2.882 2.53 4.361 4.305-3.84 4.797-8.095 7.35-12.326 7.457a11.3 11.3 0 0 1-3.318-.416l-1.594 1.603c1.64.584 3.302.854 4.963.813 5.212-.131 10.208-3.309 14.422-8.873a1 1 0 0 0-.014-1.227c-1.67-2.1-3.357-3.795-5.045-5.12m-4.043 4.066-1.75 1.758v.002a3.807 3.807 0 0 1-3.73 3.75L14.3 20.707c.526.157 1.082.24 1.658.24 3.205 0 5.824-2.619 5.824-5.824 0-.586-.087-1.153-.25-1.688" style="baseline-shift:baseline;display:inline;overflow:visible;opacity:1;vector-effect:none;fill:#fff;fill-opacity:1;stroke:none;stroke-linecap:square;stroke-linejoin:round;stroke-miterlimit:10;stroke-opacity:1;paint-order:stroke markers fill;stop-color:#000;stop-opacity:1" transform="translate(-1.011 -.42)"/></g><g style="display:inline;fill:#fff;fill-opacity:1;stroke:#fff;stroke-opacity:1"><path d="M26.014 5.047 5.99 25.182" style="fill:#fff;fill-opacity:1;stroke:#fff;stroke-width:2;stroke-linecap:round;stroke-linejoin:round;stroke-miterlimit:10;stroke-dasharray:none;stroke-opacity:1;paint-order:stroke markers fill" transform="translate(-1.011 -.42)"/></g><path d="m17.01 3.871-.194 28.37" style="fill:#e0e0e0;stroke:#e0e0e0;stroke-width:.996084;stroke-linecap:round;stroke-linejoin:round;stroke-miterlimit:10;stroke-dasharray:none;stroke-opacity:0;paint-order:stroke markers fill" transform="translate(-1.999 -3.373)"/></g></svg>