<svg xmlns="http://www.w3.org/2000/svg" width="24" height="24" fill="none" stroke="#fff" stroke-linecap="round" stroke-linejoin="round" stroke-width="1.5" class="icon icon-tabler icons-tabler-outline icon-tabler-layout-grid" viewBox="0 0 24 24"><path stroke="none" d="M0 0h24v24H0z"/><path d="M4 5a1 1 0 0 1 1-1h4a1 1 0 0 1 1 1v4a1 1 0 0 1-1 1H5a1 1 0 0 1-1-1zm10 0a1 1 0 0 1 1-1h4a1 1 0 0 1 1 1v4a1 1 0 0 1-1 1h-4a1 1 0 0 1-1-1zM4 15a1 1 0 0 1 1-1h4a1 1 0 0 1 1 1v4a1 1 0 0 1-1 1H5a1 1 0 0 1-1-1zm10 0a1 1 0 0 1 1-1h4a1 1 0 0 1 1 1v4a1 1 0 0 1-1 1h-4a1 1 0 0 1-1-1z"/></svg>