<svg xmlns="http://www.w3.org/2000/svg" xml:space="preserve" width="32" height="32" viewBox="0 0 32 32"><g style="display:inline"><g style="display:inline;opacity:1"><path d="M8.396 2.764A5.586 5.586 0 0 0 2.82 8.34v14.818a5.586 5.586 0 0 0 5.576 5.576h14.875a5.586 5.586 0 0 0 5.577-5.576V8.34a5.586 5.586 0 0 0-5.577-5.576zm0 1.924h14.875a3.624 3.624 0 0 1 3.653 3.652v.039H4.744v-.04a3.624 3.624 0 0 1 3.652-3.652m-3.652 5.615h22.18v12.855a3.624 3.624 0 0 1-3.653 3.653H8.396a3.624 3.624 0 0 1-3.652-3.653z" style="baseline-shift:baseline;display:inline;overflow:visible;opacity:1;vector-effect:none;fill:#fff;fill-opacity:1;stroke-linecap:round;stroke-miterlimit:1000;paint-order:stroke markers fill;stop-color:#000;stop-opacity:1" transform="translate(.166 .251)"/></g></g></svg>