<svg xmlns="http://www.w3.org/2000/svg" width="15.928" height="16" viewBox="0 0 15.928 16"><g style="display:inline"><path d="M2.156 0C.99 0 .036.955.036 2.12v11.815C.036 15.07.966 16 2.1 16h11.595a2.276 2.276 0 0 0 2.268-2.268V2.17A2.18 2.18 0 0 0 13.794 0Zm0 1.094H5.83v13.812H2.1a.965.965 0 0 1-.975-.97V2.12a1.02 1.02 0 0 1 1.03-1.026m4.767 0h6.87c.602 0 1.077.475 1.077 1.076v11.562c0 .656-.518 1.174-1.174 1.174H6.923Z" style="baseline-shift:baseline;display:inline;overflow:visible;vector-effect:none;fill:#fff;fill-opacity:1;stroke-width:2.16204;stroke-linecap:round;stroke-linejoin:round;stroke-miterlimit:.5;paint-order:stroke markers fill;stop-color:#000" transform="translate(-.036)"/></g></svg>