<svg xmlns="http://www.w3.org/2000/svg" xml:space="preserve" width="32" height="32" viewBox="0 0 32 32"><g style="display:inline"><path d="m11.85 3.825 8.908.036a.802.802 55.239 0 1 .75 1.08L19.3 10.926a.66.66 55.123 0 0 .62.889h4.397a.53.53 64.206 0 1 .415.86l-13.09 16.509a1.187 1.187 26.248 0 1-2.082-1.027l2.465-9.826a.664.664 52.042 0 0-.644-.825H8.425a.902.902 52.433 0 1-.872-1.134l3.085-11.619a1.25 1.25 142.549 0 1 1.213-.93z" style="display:inline;fill:none;stroke:#fff;stroke-width:2;stroke-linecap:square;stroke-miterlimit:1000;stroke-opacity:1;paint-order:stroke markers fill" transform="translate(-.173 -.724)"/></g></svg>