<svg xmlns="http://www.w3.org/2000/svg" xml:space="preserve" width="32" height="32" viewBox="0 0 32 32"><g style="fill:#e0e0e0;fill-opacity:1"><path d="M2.467 1.784h9.44a.97.97 0 0 1 .972.972v6.36a.97.97 0 0 1-.972.972h-9.44a.97.97 0 0 1-.972-.972v-6.36a.97.97 0 0 1 .972-.972m27.115 0h-9.44a.97.97 0 0 0-.972.972v6.36a.97.97 0 0 0 .972.972h9.44a.97.97 0 0 0 .972-.972v-6.36a.97.97 0 0 0-.972-.972" style="fill:#fff;fill-opacity:1;stroke-width:1.29483;stroke-linecap:square;stroke-miterlimit:0;paint-order:stroke markers fill"/><path d="M2.296 12.184h9.676m17.782 0h-9.677" style="fill:#e0e0e0;fill-opacity:1;stroke:#fff;stroke-width:2;stroke-linecap:round;stroke-miterlimit:0;stroke-dasharray:none;stroke-opacity:1;paint-order:stroke markers fill"/></g><g style="fill:#fff;fill-opacity:1"><path d="M2.467 1.784h9.44a.97.97 0 0 1 .972.972v6.36a.97.97 0 0 1-.972.972h-9.44a.97.97 0 0 1-.972-.972v-6.36a.97.97 0 0 1 .972-.972m27.115 0h-9.44a.97.97 0 0 0-.972.972v6.36a.97.97 0 0 0 .972.972h9.44a.97.97 0 0 0 .972-.972v-6.36a.97.97 0 0 0-.972-.972" style="fill:#fff;fill-opacity:1;stroke-width:1.29483;stroke-linecap:square;stroke-miterlimit:0;paint-order:stroke markers fill" transform="translate(-.025 17.652)"/><path d="M2.296 12.184h9.676m17.782 0h-9.677" style="fill:#fff;fill-opacity:1;stroke:#fff;stroke-width:2;stroke-linecap:round;stroke-miterlimit:0;stroke-dasharray:none;stroke-opacity:1;paint-order:stroke markers fill" transform="translate(-.025 17.652)"/></g><path d="M7.129 16.31h17.772M7.134 12.184v7.252m17.781-7.252v7.252" style="fill:#fff;fill-opacity:1;stroke:#fff;stroke-width:2;stroke-linecap:round;stroke-miterlimit:0;stroke-dasharray:none;stroke-opacity:1;paint-order:stroke markers fill"/><circle cx="16" cy="16.31" r=".861" style="fill:#fff;fill-opacity:1;stroke:#fff;stroke-width:2.32706;stroke-linecap:round;stroke-miterlimit:0;stroke-dasharray:none;stroke-opacity:1;paint-order:stroke markers fill"/></svg>