<svg xmlns="http://www.w3.org/2000/svg" width="15.928" height="16" viewBox="0 0 15.928 16"><g style="display:inline"><path d="M13.844 0c1.165 0 2.12.955 2.12 2.12v11.815c0 1.135-.93 2.065-2.065 2.065H2.304a2.276 2.276 0 0 1-2.268-2.268V2.17A2.18 2.18 0 0 1 2.206 0Zm0 1.094H10.17v13.812h3.73a.965.965 0 0 0 .975-.97V2.12a1.02 1.02 0 0 0-1.03-1.026m-4.767 0h-6.87c-.602 0-1.077.475-1.077 1.076v11.562c0 .656.518 1.174 1.174 1.174h6.773z" style="baseline-shift:baseline;display:inline;overflow:visible;vector-effect:none;fill:#fff;fill-opacity:1;stroke-width:2.16205;stroke-linecap:round;stroke-linejoin:round;stroke-miterlimit:.5;paint-order:stroke markers fill;stop-color:#000" transform="translate(-.036)"/></g></svg>