<svg xmlns="http://www.w3.org/2000/svg" xml:space="preserve" width="30.071" height="30.071" viewBox="0 0 30.071 30.071"><g style="display:inline"><path d="M16.27 2.037c-.537-.002-1.074.254-1.35.768l-3.346 6.232a2.9 2.9 0 0 1-2.234 1.514l-5.537.629c-1.706.193-2.492 2.396-1.293 3.625l4.426 4.535c.312.32.468.758.427 1.203l-.646 7.111c-.134 1.47 1.513 2.57 2.82 1.883l5.488-2.887c.57-.3 2.004-.332 2.532-.064 1.704.865 3.385 1.869 5.136 2.828.68.372 1.537.483 2.207.033.671-.45.894-1.272.825-2.039l-.62-6.804a1.66 1.66 0 0 1 .463-1.307l4.87-4.992c1-1.026.337-2.886-1.086-3.047l-6.645-.754a2.08 2.08 0 0 1-1.61-1.098l-3.484-6.594c-.272-.515-.807-.773-1.343-.775m.371 3.214 2.69 5.089a4.09 4.09 0 0 0 3.151 2.15l5.432.618a.398.398 70.38 0 1 .24.672l-4.017 4.12a3.66 3.66 0 0 0-1.024 2.883c.168 1.709.33 3.826.511 5.595.08.78-.368 1.06-1.047.673-1.305-.743-3.305-1.837-4.114-2.248-1.371-.697-3.053-.615-4.37.078l-4.53 2.384a.518.518 33.72 0 1-.758-.506l.549-6.034a3.53 3.53 0 0 0-.596-2.303c-.192-.282-.583-.679-.82-.926L4.425 13.83a.404.404 109.558 0 1 .242-.681l4.898-.61a4.91 4.91 0 0 0 3.772-2.557l2.542-4.733a.432.432.19 0 1 .763.002" style="baseline-shift:baseline;display:inline;overflow:visible;opacity:1;vector-effect:none;fill:#fff;fill-opacity:1;stroke-linecap:round;stroke-miterlimit:1000;paint-order:stroke markers fill;stop-color:#000;stop-opacity:1" transform="translate(-1.39 -.856)"/></g></svg>