<?xml version="1.0" encoding="UTF-8" standalone="no"?>
<!-- Created with Inkscape (http://www.inkscape.org/) -->

<svg
   width="50mm"
   height="50mm"
   id="svg2"
   sodipodi:version="0.32"
   inkscape:version="1.4 (e7c3feb100, 2024-10-09)"
   version="1.0"
   sodipodi:docname="pressurized_vessel_dark.svg"
   inkscape:output_extension="org.inkscape.output.svg.inkscape"
   viewBox="0 0 50 50"
   xmlns:inkscape="http://www.inkscape.org/namespaces/inkscape"
   xmlns:sodipodi="http://sodipodi.sourceforge.net/DTD/sodipodi-0.dtd"
   xmlns="http://www.w3.org/2000/svg"
   xmlns:svg="http://www.w3.org/2000/svg"
   xmlns:rdf="http://www.w3.org/1999/02/22-rdf-syntax-ns#"
   xmlns:cc="http://creativecommons.org/ns#"
   xmlns:dc="http://purl.org/dc/elements/1.1/">
  <defs
     id="defs4" />
  <sodipodi:namedview
     id="base"
     pagecolor="#000000"
     bordercolor="#000000"
     borderopacity="0.10196078"
     gridtolerance="10000"
     guidetolerance="10"
     objecttolerance="10"
     inkscape:pageopacity="0.0"
     inkscape:pageshadow="2"
     inkscape:zoom="2.8"
     inkscape:cx="54.821429"
     inkscape:cy="74.464286"
     inkscape:document-units="mm"
     inkscape:current-layer="layer1"
     width="20mm"
     height="20mm"
     units="mm"
     inkscape:window-width="1920"
     inkscape:window-height="1131"
     inkscape:window-x="0"
     inkscape:window-y="0"
     inkscape:showpageshadow="2"
     inkscape:pagecheckerboard="true"
     inkscape:deskcolor="#d1d1d1"
     inkscape:window-maximized="1" />
  <metadata
     id="metadata7">
    <rdf:RDF>
      <cc:Work
         rdf:about="">
        <dc:format>image/svg+xml</dc:format>
        <dc:type
           rdf:resource="http://purl.org/dc/dcmitype/StillImage" />
      </cc:Work>
    </rdf:RDF>
  </metadata>
  <g
     inkscape:label="Layer 1"
     inkscape:groupmode="layer"
     id="layer1"
     style="stroke:#ffffff">
    <g
       id="g2774"
       transform="matrix(0.78244262,0,0,0.78244262,-2.7241867,-2.3262084)"
       style="fill:none;stroke:#ffffff">
      <path
         sodipodi:open="true"
         sodipodi:end="3.1415927"
         sodipodi:start="0.017453293"
         transform="matrix(1.4090631,0,0,1.7600641,-3.2596449,30.294269)"
         d="m 37.203241,13.364701 a 9.7440948,4.4291339 0 0 1 -9.827643,4.351666 9.7440948,4.4291339 0 0 1 -9.659062,-4.428965"
         sodipodi:ry="4.4291339"
         sodipodi:rx="9.7440948"
         sodipodi:cy="13.287402"
         sodipodi:cx="27.46063"
         id="path2865"
         style="fill:none;fill-opacity:1;stroke:#ffffff;stroke-width:0.674995;stroke-miterlimit:4;stroke-dasharray:none;stroke-dashoffset:0;stroke-opacity:1"
         sodipodi:type="arc"
         sodipodi:arc-type="arc" />
      <path
         sodipodi:open="true"
         sodipodi:end="3.1415927"
         sodipodi:start="0.017453293"
         transform="matrix(1.4089528,0,0,-1.3269204,-3.2566161,31.802164)"
         d="m 37.203241,13.364701 a 9.7440948,4.4291339 0 0 1 -9.827643,4.351666 9.7440948,4.4291339 0 0 1 -9.659062,-4.428965"
         sodipodi:ry="4.4291339"
         sodipodi:rx="9.7440948"
         sodipodi:cy="13.287402"
         sodipodi:cx="27.46063"
         id="path3248"
         style="fill:none;fill-opacity:1;stroke:#ffffff;stroke-width:0.777427;stroke-miterlimit:4;stroke-dasharray:none;stroke-dashoffset:0;stroke-opacity:1"
         sodipodi:type="arc"
         sodipodi:arc-type="arc" />
      <path
         id="path3250"
         d="m 21.711705,13.722069 c 0,40.782784 0,40.782784 0,40.782784"
         style="color:#000000;display:inline;overflow:visible;visibility:visible;fill:none;fill-opacity:1;fill-rule:nonzero;stroke:#ffffff;stroke-width:1.06299;stroke-linecap:butt;stroke-linejoin:miter;stroke-miterlimit:4;stroke-dasharray:none;stroke-dashoffset:0;stroke-opacity:1;marker:none;marker-start:none;marker-mid:none;marker-end:none;enable-background:accumulate" />
      <path
         id="path3252"
         d="m 49.163386,13.713031 c 0,40.79173 0,40.79173 0,40.79173"
         style="color:#000000;display:inline;overflow:visible;visibility:visible;fill:none;fill-opacity:1;fill-rule:nonzero;stroke:#ffffff;stroke-width:1.06299;stroke-linecap:butt;stroke-linejoin:miter;stroke-miterlimit:4;stroke-dasharray:none;stroke-dashoffset:0;stroke-opacity:1;marker:none;marker-start:none;marker-mid:none;marker-end:none;enable-background:accumulate" />
      <path
         id="path2772"
         d="m 33.467862,60.827788 c -3.577648,-0.413125 -6.10002,-1.215482 -8.214142,-2.612883 -1.024074,-0.676902 -2.204101,-1.968578 -2.580352,-2.8245 -0.378258,-0.860483 -0.364238,-0.03958 -0.365254,-21.38872 l -9.66e-4,-20.317289 0.233492,-0.468565 c 1.031623,-2.070193 4.817372,-3.6605684 10.034365,-4.2153907 1.367601,-0.1454429 4.725174,-0.1186857 6.160715,0.049095 4.897705,0.5724277 8.598366,2.1804967 9.587937,4.1662967 l 0.233491,0.468564 -9.55e-4,20.317289 c -0.0011,22.298611 0.04107,20.607328 -0.540759,21.698958 -1.275447,2.393011 -4.759848,4.264225 -9.235072,4.959511 -0.934233,0.145142 -4.525825,0.258473 -5.3125,0.167634 z"
         style="opacity:1;fill:none;fill-opacity:1;stroke:#ffffff;stroke-width:0.09491;stroke-linecap:square;stroke-miterlimit:4;stroke-dasharray:none;stroke-dashoffset:0;stroke-opacity:1" />
    </g>
  </g>
</svg>
